<svg width="24" height="24" viewBox="0 0 24 24" fill="none" xmlns="http://www.w3.org/2000/svg">
<path d="M7.1925 8.395C7.015 8.395 6.86666 8.335 6.7475 8.215C6.62833 8.095 6.56833 7.94625 6.5675 7.76875C6.56667 7.59125 6.62666 7.44292 6.7475 7.32375C6.86833 7.20458 7.01666 7.145 7.1925 7.145H21.375C21.5525 7.145 21.7008 7.20458 21.82 7.32375C21.94 7.44375 22 7.5925 22 7.77C22 7.9475 21.94 8.09583 21.82 8.215C21.7 8.33417 21.5517 8.39417 21.375 8.395H7.1925ZM7.1925 12.625C7.015 12.625 6.86666 12.565 6.7475 12.445C6.62833 12.325 6.56833 12.1762 6.5675 11.9987C6.56667 11.8212 6.62666 11.6729 6.7475 11.5537C6.86833 11.4346 7.01666 11.375 7.1925 11.375H21.375C21.5525 11.375 21.7008 11.435 21.82 11.555C21.9392 11.675 21.9992 11.8238 22 12.0013C22.0008 12.1788 21.9408 12.3271 21.82 12.4463C21.6992 12.5654 21.5508 12.625 21.375 12.625H7.1925ZM7.1925 16.8563C7.015 16.8563 6.86666 16.7963 6.7475 16.6763C6.6275 16.5563 6.5675 16.4075 6.5675 16.23C6.5675 16.0525 6.6275 15.9042 6.7475 15.785C6.8675 15.6658 7.01583 15.6058 7.1925 15.605H21.375C21.5525 15.605 21.7008 15.6654 21.82 15.7863C21.9392 15.9071 21.9992 16.0554 22 16.2313C22.0008 16.4071 21.9408 16.5554 21.82 16.6763C21.6992 16.7971 21.5508 16.8571 21.375 16.8563H7.1925ZM2.77 8.5375C2.55167 8.5375 2.36875 8.46125 2.22125 8.30875C2.07375 8.15792 2 7.97 2 7.745C2 7.53417 2.07375 7.3575 2.22125 7.215C2.36875 7.07167 2.55167 7 2.77 7C2.9875 7 3.17 7.07167 3.3175 7.215C3.465 7.35667 3.53875 7.53333 3.53875 7.745C3.53875 7.97 3.465 8.15833 3.3175 8.31C3.17 8.4625 2.98708 8.53875 2.76875 8.53875M2.76875 12.745C2.55125 12.745 2.36875 12.6737 2.22125 12.5312C2.07375 12.3888 2 12.2117 2 12C2 11.7583 2.07375 11.5658 2.22125 11.4225C2.36875 11.2792 2.55167 11.2071 2.77 11.2062C2.98833 11.2054 3.17083 11.2771 3.3175 11.4212C3.46417 11.5654 3.53792 11.7583 3.53875 12C3.53875 12.2108 3.465 12.3879 3.3175 12.5312C3.17 12.6746 2.98708 12.7458 2.76875 12.745ZM2.76875 17C2.55125 17 2.36875 16.9242 2.22125 16.7725C2.07375 16.62 2 16.4317 2 16.2075C2 15.9958 2.07375 15.8188 2.22125 15.6763C2.36875 15.5329 2.55167 15.4613 2.77 15.4613C2.9875 15.4613 3.17 15.5329 3.3175 15.6763C3.465 15.8196 3.53875 15.9967 3.53875 16.2075C3.53875 16.4317 3.465 16.62 3.3175 16.7725C3.17 16.9242 2.98708 17 2.76875 17Z" fill="#666666"/>
</svg>
