<svg width="14" height="14" viewBox="0 0 14 14" fill="none" xmlns="http://www.w3.org/2000/svg">
<path d="M13.5833 6.83425L13.5833 6.83425L13.5829 6.83322C13.0649 5.49308 12.1654 4.33412 10.9958 3.49959C9.82622 2.66505 8.43773 2.19153 7.00194 2.13754L7.00194 2.13739L6.99818 2.13754C5.56239 2.19153 4.17389 2.66505 3.00429 3.49959C1.83469 4.33412 0.935266 5.49308 0.417172 6.83322L0.41716 6.83322L0.416787 6.83425C0.378063 6.94136 0.378063 7.05864 0.416787 7.16575L0.416775 7.16575L0.417172 7.16678C0.935266 8.50692 1.83469 9.66588 3.00429 10.5004C4.17389 11.3349 5.56239 11.8085 6.99818 11.8625L6.99817 11.8626L7.00194 11.8625C8.43773 11.8085 9.82622 11.3349 10.9958 10.5004C12.1654 9.66588 13.0649 8.50692 13.583 7.16678L13.5833 7.16575C13.6221 7.05864 13.6221 6.94136 13.5833 6.83425ZM7.00006 10.8875C4.70935 10.8875 2.28426 9.19124 1.39708 7C2.28426 4.80876 4.70935 3.1125 7.00006 3.1125C9.29076 3.1125 11.7159 4.80876 12.603 7C11.7159 9.19124 9.29076 10.8875 7.00006 10.8875Z" fill="black" stroke="black" stroke-width="0.1"/>
<path d="M7 4.325C6.47094 4.325 5.95375 4.48189 5.51385 4.77582C5.07395 5.06975 4.73109 5.48753 4.52862 5.97632C4.32616 6.46511 4.27319 7.00297 4.3764 7.52187C4.47962 8.04077 4.73438 8.51741 5.10849 8.89151C5.4826 9.26562 5.95924 9.52039 6.47813 9.6236C6.99703 9.72682 7.53489 9.67384 8.02368 9.47138C8.51247 9.26891 8.93025 8.92605 9.22418 8.48615C9.51811 8.04625 9.675 7.52907 9.675 7C9.675 6.29055 9.39317 5.61015 8.89151 5.10849C8.38985 4.60683 7.70946 4.325 7 4.325ZM7 8.7C6.66377 8.7 6.3351 8.6003 6.05553 8.4135C5.77597 8.2267 5.55807 7.9612 5.42941 7.65056C5.30074 7.33993 5.26707 6.99811 5.33267 6.66835C5.39826 6.33858 5.56017 6.03567 5.79792 5.79792C6.03567 5.56017 6.33858 5.39826 6.66835 5.33266C6.99812 5.26707 7.33993 5.30074 7.65056 5.4294C7.9612 5.55807 8.2267 5.77597 8.4135 6.05553C8.6003 6.33509 8.7 6.66377 8.7 7C8.7 7.45087 8.52089 7.88327 8.20208 8.20208C7.88327 8.52089 7.45087 8.7 7 8.7Z" fill="black" stroke="black" stroke-width="0.1"/>
</svg>
