<svg width="14" height="14" viewBox="0 0 14 14" fill="none" xmlns="http://www.w3.org/2000/svg">
<g clip-path="url(#clip0_4778_2892)">
<path d="M10.9589 0.870351L10.9586 0.869993C10.789 0.701263 10.5595 0.606543 10.3203 0.606543C10.0811 0.606543 9.85156 0.701263 9.68197 0.869993L9.68184 0.870121L1.58906 8.95123L1.56878 8.97149L1.5623 8.99942L0.823415 12.1883L0.823408 12.1883L0.823142 12.1895C0.794471 12.3206 0.795454 12.4565 0.826019 12.5872C0.856584 12.7179 0.915958 12.8401 0.999806 12.9449C1.08365 13.0497 1.18985 13.1345 1.31065 13.193C1.42992 13.2508 1.56045 13.2815 1.69293 13.2831C1.75399 13.2893 1.81555 13.2891 1.87658 13.2825L1.87666 13.2832L1.88817 13.2806L5.11206 12.5417L5.14007 12.5353L5.1604 12.515L13.2415 4.44163L13.2417 4.44141C13.4105 4.27183 13.5052 4.04233 13.5052 3.8031C13.5052 3.56388 13.4105 3.33438 13.2417 3.1648L10.9589 0.870351ZM10.6143 5.71628L4.65129 11.6524L1.81204 12.2481L2.45841 9.46536L8.42237 3.52439L10.6143 5.71628ZM11.2761 5.0103L9.08524 2.81942L10.2961 1.61547L12.4514 3.80722L11.2761 5.0103Z" fill="black" stroke="black" stroke-width="0.2"/>
</g>
<defs>
<clipPath id="clip0_4778_2892">
<rect width="14" height="14" fill="white"/>
</clipPath>
</defs>
</svg>
