<svg width="12" height="14" viewBox="0 0 12 14" fill="none" xmlns="http://www.w3.org/2000/svg">
<path d="M11.3333 2.3335C11.5101 2.3335 11.6797 2.40373 11.8047 2.52876C11.9298 2.65378 12 2.82335 12 3.00016C12 3.17697 11.9298 3.34654 11.8047 3.47157C11.6797 3.59659 11.5101 3.66683 11.3333 3.66683H10.6667L10.6647 3.71416L10.0427 12.4282C10.0187 12.7646 9.8682 13.0794 9.62141 13.3092C9.37462 13.5391 9.04991 13.6668 8.71267 13.6668H3.28667C2.94943 13.6668 2.62471 13.5391 2.37792 13.3092C2.13114 13.0794 1.98061 12.7646 1.95667 12.4282L1.33467 3.71483L1.33333 3.66683H0.666667C0.489856 3.66683 0.320286 3.59659 0.195262 3.47157C0.0702379 3.34654 0 3.17697 0 3.00016C0 2.82335 0.0702379 2.65378 0.195262 2.52876C0.320286 2.40373 0.489856 2.3335 0.666667 2.3335H11.3333ZM9.33133 3.66683H2.66867L3.28733 12.3335H8.71267L9.33133 3.66683ZM7.33333 0.333496C7.51014 0.333496 7.67971 0.403734 7.80474 0.528758C7.92976 0.653782 8 0.823352 8 1.00016C8 1.17697 7.92976 1.34654 7.80474 1.47157C7.67971 1.59659 7.51014 1.66683 7.33333 1.66683H4.66667C4.48986 1.66683 4.32029 1.59659 4.19526 1.47157C4.07024 1.34654 4 1.17697 4 1.00016C4 0.823352 4.07024 0.653782 4.19526 0.528758C4.32029 0.403734 4.48986 0.333496 4.66667 0.333496H7.33333Z" fill="black"/>
</svg>
