<svg width="14" height="14" viewBox="0 0 14 14" fill="none" xmlns="http://www.w3.org/2000/svg">
<path d="M0.25 13.75V10.5625L10.15 0.68125C10.3 0.54375 10.4657 0.4375 10.6473 0.3625C10.8287 0.2875 11.0192 0.25 11.2187 0.25C11.4182 0.25 11.612 0.2875 11.8 0.3625C11.988 0.4375 12.1505 0.55 12.2875 0.7L13.3187 1.75C13.4687 1.8875 13.5782 2.05 13.6472 2.2375C13.7162 2.425 13.7505 2.6125 13.75 2.8C13.75 3 13.7157 3.19075 13.6472 3.37225C13.5787 3.55375 13.4692 3.71925 13.3187 3.86875L3.4375 13.75H0.25ZM11.2 3.85L12.25 2.8L11.2 1.75L10.15 2.8L11.2 3.85Z" fill="white"/>
</svg>
