<svg width="18" height="18" viewBox="0 0 18 18" fill="none" xmlns="http://www.w3.org/2000/svg">
<path d="M6.38079 9.42167C4.30829 7.87167 2.82995 6.16667 2.02245 5.20833C1.77245 4.91167 1.69079 4.69417 1.64162 4.31167C1.47329 3.00167 1.38912 2.34667 1.77329 1.92333C2.15745 1.5 2.83662 1.5 4.19495 1.5H13.805C15.1633 1.5 15.8425 1.5 16.2266 1.9225C16.6108 2.34583 16.5266 3.00083 16.3583 4.31083C16.3083 4.69333 16.2266 4.91083 15.9775 5.2075C15.1691 6.1675 13.6883 7.87583 11.6108 9.42833C11.5147 9.50309 11.4353 9.59706 11.3776 9.70425C11.3199 9.81143 11.2853 9.92948 11.2758 10.0508C11.07 12.3267 10.88 13.5733 10.7616 14.2033C10.5708 15.2217 9.12828 15.8342 8.35495 16.38C7.89495 16.705 7.33662 16.3183 7.27745 15.815C7.05618 13.8971 6.86893 11.9754 6.71579 10.0508C6.70723 9.92832 6.67297 9.80899 6.61526 9.70059C6.55754 9.59219 6.47765 9.49716 6.38079 9.42167Z" stroke="#666666" stroke-width="1.5" stroke-linecap="round" stroke-linejoin="round"/>
</svg>
