<svg width="20" height="20" viewBox="0 0 20 20" fill="none" xmlns="http://www.w3.org/2000/svg">
<path d="M9.99922 4.93203C10.2114 4.93203 10.4149 4.84775 10.5649 4.69772C10.7149 4.54769 10.7992 4.3442 10.7992 4.13203C10.7992 3.91986 10.7149 3.71637 10.5649 3.56635C10.4149 3.41632 10.2114 3.33203 9.99922 3.33203C9.78705 3.33203 9.58356 3.41632 9.43353 3.56635C9.2835 3.71637 9.19922 3.91986 9.19922 4.13203C9.19922 4.3442 9.2835 4.54769 9.43353 4.69772C9.58356 4.84775 9.78705 4.93203 9.99922 4.93203ZM9.99922 10.7987C10.2114 10.7987 10.4149 10.7144 10.5649 10.5644C10.7149 10.4144 10.7992 10.2109 10.7992 9.9987C10.7992 9.78652 10.7149 9.58304 10.5649 9.43301C10.4149 9.28298 10.2114 9.1987 9.99922 9.1987C9.78705 9.1987 9.58356 9.28298 9.43353 9.43301C9.2835 9.58304 9.19922 9.78652 9.19922 9.9987C9.19922 10.2109 9.2835 10.4144 9.43353 10.5644C9.58356 10.7144 9.78705 10.7987 9.99922 10.7987ZM9.99922 16.6654C10.2114 16.6654 10.4149 16.5811 10.5649 16.431C10.7149 16.281 10.7992 16.0775 10.7992 15.8654C10.7992 15.6532 10.7149 15.4497 10.5649 15.2997C10.4149 15.1496 10.2114 15.0654 9.99922 15.0654C9.78705 15.0654 9.58356 15.1496 9.43353 15.2997C9.2835 15.4497 9.19922 15.6532 9.19922 15.8654C9.19922 16.0775 9.2835 16.281 9.43353 16.431C9.58356 16.5811 9.78705 16.6654 9.99922 16.6654Z" stroke="#666666" stroke-linecap="round" stroke-linejoin="round"/>
</svg>
