<svg width="24" height="24" viewBox="0 0 24 24" fill="none" xmlns="http://www.w3.org/2000/svg">
<g clip-path="url(#clip0_5367_2194)">
<path d="M3.63995 4.93987L3.63995 7.70654H4.43328L4.43328 4.0332H3.79995L2.69995 4.7732L3.01328 5.3332L3.63995 4.93987Z" fill="#666666"/>
<path d="M3.71335 9.87981C3.78205 9.87341 3.85134 9.88111 3.91695 9.90244C3.98257 9.92377 4.04314 9.95827 4.09495 10.0038C4.14676 10.0494 4.18871 10.1051 4.21825 10.1674C4.24778 10.2298 4.26426 10.2975 4.26669 10.3665C4.26669 10.6198 4.12669 10.8598 3.68669 11.2131L2.35335 12.2598V12.9265H5.11335V12.1865H3.55335L4.22002 11.6731C4.88669 11.2065 5.07335 10.8265 5.07335 10.3398C5.06772 10.1736 5.02815 10.0102 4.95707 9.85982C4.88598 9.70943 4.7849 9.57516 4.66002 9.46526C4.53514 9.35537 4.38911 9.27218 4.2309 9.22079C4.07269 9.16941 3.90564 9.15093 3.74002 9.16647C3.46218 9.16486 3.18794 9.2293 2.93989 9.35449C2.69184 9.47967 2.4771 9.66201 2.31335 9.88647L2.82002 10.3731C2.92182 10.2286 3.05513 10.1091 3.20989 10.0236C3.36465 9.93815 3.5368 9.88898 3.71335 9.87981Z" fill="#666666"/>
<path d="M4.37335 16.4268C4.5626 16.3796 4.73077 16.2707 4.85144 16.1175C4.97211 15.9642 5.03845 15.7752 5.04002 15.5802C5.04002 15.0002 4.52002 14.5735 3.70668 14.5735C3.43767 14.5688 3.17124 14.6266 2.92832 14.7423C2.6854 14.8579 2.47261 15.0284 2.30668 15.2402L2.76668 15.7202C2.87315 15.5923 3.00533 15.4882 3.15464 15.4147C3.30395 15.3412 3.46705 15.2999 3.63335 15.2935C3.99335 15.2935 4.24668 15.4668 4.24668 15.7335C4.24668 16.0002 4.00668 16.1468 3.58002 16.1468H3.19335L3.19335 16.8135H3.62002C4.11335 16.8135 4.33335 16.9535 4.33335 17.2335C4.33335 17.5135 4.10002 17.6868 3.66668 17.6868C3.48337 17.6854 3.30233 17.6462 3.13485 17.5716C2.96738 17.4971 2.81709 17.3888 2.69335 17.2535L2.22668 17.7735C2.41248 17.9777 2.64054 18.1389 2.89498 18.246C3.14942 18.3531 3.42414 18.4034 3.70002 18.3935C4.56002 18.3935 5.12002 17.9335 5.12002 17.3002C5.11949 17.0897 5.04409 16.8862 4.90729 16.7262C4.77049 16.5662 4.58122 16.4601 4.37335 16.4268Z" fill="#666666"/>
<path d="M22 6C22 5.86739 21.9295 5.74021 21.804 5.64645C21.6786 5.55268 21.5084 5.5 21.331 5.5L7 5.5V6.5L21.331 6.5C21.5084 6.5 21.6786 6.44732 21.804 6.35355C21.9295 6.25979 22 6.13261 22 6Z" fill="#666666"/>
<path d="M21.331 11L7 11V12L21.331 12C21.5084 12 21.6786 11.9473 21.804 11.8536C21.9295 11.7598 22 11.6326 22 11.5C22 11.3674 21.9295 11.2402 21.804 11.1464C21.6786 11.0527 21.5084 11 21.331 11Z" fill="#666666"/>
<path d="M21.331 16L7 16V17L21.331 17C21.5084 17 21.6786 16.9473 21.804 16.8536C21.9295 16.7598 22 16.6326 22 16.5C22 16.3674 21.9295 16.2402 21.804 16.1464C21.6786 16.0527 21.5084 16 21.331 16Z" fill="#666666"/>
</g>
<defs>
<clipPath id="clip0_5367_2194">
<rect width="24" height="24" fill="white"/>
</clipPath>
</defs>
</svg>
