<svg width="10" height="10" viewBox="0 0 10 10" fill="none" xmlns="http://www.w3.org/2000/svg">
<path fill-rule="evenodd" clip-rule="evenodd" d="M1.11103 1.6819C1.61672 1.1761 2.28649 0.867604 2.99956 0.812047C3.71264 0.75649 4.4221 0.957524 5.00003 1.3789C5.61065 0.937116 6.36515 0.741261 7.11355 0.830269C7.86196 0.919277 8.54947 1.28663 9.03944 1.85931C9.52941 2.43199 9.78596 3.16807 9.75809 3.92123C9.73022 4.67439 9.41998 5.3895 8.88903 5.9244L6.06053 8.7529C5.77924 9.03411 5.39778 9.19208 5.00003 9.19208C4.60229 9.19208 4.22082 9.03411 3.93953 8.7529L1.11103 5.9249C0.548465 5.3623 0.232422 4.59927 0.232422 3.80365C0.232422 3.00804 0.548465 2.24451 1.11103 1.6819Z" fill="#FF6F00"/>
</svg>
