<svg width="37" height="36" viewBox="0 0 37 36" fill="none" xmlns="http://www.w3.org/2000/svg">
<path d="M18.6669 2.57129C10.1464 2.57129 3.23828 9.47943 3.23828 17.9999C3.23828 26.5203 10.1464 33.4284 18.6669 33.4284C27.1873 33.4284 34.0954 26.5203 34.0954 17.9999C34.0954 9.47943 27.1873 2.57129 18.6669 2.57129Z" fill="url(#paint0_linear_5377_4385)"/>
<path d="M18.6579 9.83285C18.6246 9.59081 18.5006 9.37044 18.3111 9.21626C18.1216 9.06208 17.8806 8.98559 17.6368 9.00224C17.3931 9.0189 17.1648 9.12745 16.998 9.30597C16.8312 9.4845 16.7384 9.71968 16.7383 9.96399V18.964L16.7473 19.0951C16.779 19.326 16.8932 19.5376 17.0688 19.6907C17.2444 19.8439 17.4695 19.9283 17.7026 19.9283H24.1311L24.2623 19.9193C24.5043 19.886 24.7247 19.762 24.8789 19.5725C25.033 19.383 25.1095 19.142 25.0929 18.8983C25.0762 18.6545 24.9677 18.4262 24.7892 18.2594C24.6106 18.0926 24.3755 17.9998 24.1311 17.9997H18.6669V9.96399L18.6579 9.83285Z" fill="url(#paint1_linear_5377_4385)"/>
<defs>
<linearGradient id="paint0_linear_5377_4385" x1="8.38114" y1="0.857432" x2="23.8097" y2="35.1423" gradientUnits="userSpaceOnUse">
<stop stop-color="#1EC8B0"/>
<stop offset="1" stop-color="#2764E7"/>
</linearGradient>
<linearGradient id="paint1_linear_5377_4385" x1="17.4699" y1="10.6724" x2="14.6927" y2="19.4063" gradientUnits="userSpaceOnUse">
<stop stop-color="#FDFDFD"/>
<stop offset="1" stop-color="#D1D1FF"/>
</linearGradient>
</defs>
</svg>
