<svg width="18" height="18" viewBox="0 0 18 18" fill="none" xmlns="http://www.w3.org/2000/svg">
<path d="M16.3125 13.9676V16.875C16.3125 17.0242 16.2532 17.1673 16.1477 17.2727C16.0423 17.3782 15.8992 17.4375 15.75 17.4375C15.6008 17.4375 15.4577 17.3782 15.3523 17.2727C15.2468 17.1673 15.1875 17.0242 15.1875 16.875V13.9676C15.1849 13.2456 15.0337 12.5318 14.7434 11.8708C14.4531 11.2097 14.0298 10.6155 13.5 10.125V14.2277C13.4999 14.3488 13.4607 14.4666 13.3884 14.5636C13.316 14.6606 13.2142 14.7317 13.0982 14.7663C12.9822 14.8009 12.8582 14.7971 12.7445 14.7556C12.6308 14.714 12.5335 14.6369 12.4671 14.5357L11.7162 13.3889C11.7105 13.3805 11.7049 13.3713 11.7 13.3622C11.5897 13.1674 11.4065 13.0244 11.1908 12.9647C10.9751 12.905 10.7445 12.9334 10.5497 13.0437C10.3549 13.154 10.2119 13.3371 10.1522 13.5529C10.0925 13.7686 10.1209 13.9992 10.2312 14.194L11.7872 16.5698C11.8689 16.6947 11.8976 16.8469 11.8671 16.9929C11.8366 17.1389 11.7493 17.2669 11.6244 17.3486C11.4996 17.4302 11.3474 17.459 11.2013 17.4284C11.0553 17.3979 10.9274 17.3106 10.8457 17.1858L9.28055 14.7952L9.26367 14.7684C9.02139 14.3532 8.93939 13.8637 9.03314 13.3922C9.1269 12.9207 9.38992 12.4999 9.77261 12.2089C10.1553 11.918 10.6312 11.7771 11.1106 11.8129C11.59 11.8487 12.0397 12.0586 12.375 12.4031V4.5H11.25C11.1008 4.5 10.9577 4.44074 10.8523 4.33525C10.7468 4.22976 10.6875 4.08668 10.6875 3.9375C10.6875 3.78832 10.7468 3.64524 10.8523 3.53975C10.9577 3.43426 11.1008 3.375 11.25 3.375H12.375C12.6734 3.375 12.9595 3.49353 13.1705 3.7045C13.3815 3.91548 13.5 4.20163 13.5 4.5V8.69203C14.3634 9.27546 15.071 10.0611 15.5612 10.9806C16.0514 11.9002 16.3093 12.9256 16.3125 13.9676ZM6.1875 3.9375C6.1875 3.78832 6.12824 3.64524 6.02275 3.53975C5.91726 3.43426 5.77418 3.375 5.625 3.375H4.5C4.20163 3.375 3.91548 3.49353 3.7045 3.7045C3.49353 3.91548 3.375 4.20163 3.375 4.5V14.0625C3.375 14.2117 3.43426 14.3548 3.53975 14.4602C3.64524 14.5657 3.78832 14.625 3.9375 14.625C4.08668 14.625 4.22976 14.5657 4.33525 14.4602C4.44074 14.3548 4.5 14.2117 4.5 14.0625V4.5H5.625C5.77418 4.5 5.91726 4.44074 6.02275 4.33525C6.12824 4.22976 6.1875 4.08668 6.1875 3.9375ZM11.0855 6.91453C11.0332 6.86223 10.9712 6.82074 10.9029 6.79244C10.8346 6.76413 10.7614 6.74956 10.6875 6.74956C10.6136 6.74956 10.5404 6.76413 10.4721 6.79244C10.4038 6.82074 10.3418 6.86223 10.2895 6.91453L9 8.20477V1.125C9 0.975816 8.94074 0.832742 8.83525 0.727252C8.72976 0.621763 8.58668 0.5625 8.4375 0.5625C8.28832 0.5625 8.14524 0.621763 8.03975 0.727252C7.93426 0.832742 7.875 0.975816 7.875 1.125V8.20477L6.58547 6.91453C6.47992 6.80898 6.33677 6.74969 6.1875 6.74969C6.03823 6.74969 5.89508 6.80898 5.78953 6.91453C5.68398 7.02008 5.62469 7.16323 5.62469 7.3125C5.62469 7.46177 5.68398 7.60492 5.78953 7.71047L8.03953 9.96047C8.09177 10.0128 8.15381 10.0543 8.2221 10.0826C8.29038 10.1109 8.36358 10.1254 8.4375 10.1254C8.51142 10.1254 8.58462 10.1109 8.6529 10.0826C8.72119 10.0543 8.78323 10.0128 8.83547 9.96047L11.0855 7.71047C11.1378 7.65823 11.1793 7.59619 11.2076 7.5279C11.2359 7.45962 11.2504 7.38642 11.2504 7.3125C11.2504 7.23858 11.2359 7.16538 11.2076 7.0971C11.1793 7.02881 11.1378 6.96677 11.0855 6.91453Z" fill="white"/>
</svg>
