<svg width="14" height="2" viewBox="0 0 14 2" fill="none" xmlns="http://www.w3.org/2000/svg">
<path d="M1.35 1.782C1.11 1.782 0.904 1.698 0.732 1.53C0.564 1.358 0.48 1.146 0.48 0.894C0.48 0.654 0.564 0.448 0.732 0.276C0.904 0.104 1.11 0.0179998 1.35 0.0179998C1.598 0.0179998 1.806 0.104 1.974 0.276C2.146 0.448 2.232 0.654 2.232 0.894C2.232 1.146 2.146 1.358 1.974 1.53C1.806 1.698 1.598 1.782 1.35 1.782ZM6.93984 1.782C6.69984 1.782 6.49384 1.698 6.32184 1.53C6.15384 1.358 6.06984 1.146 6.06984 0.894C6.06984 0.654 6.15384 0.448 6.32184 0.276C6.49384 0.104 6.69984 0.0179998 6.93984 0.0179998C7.18784 0.0179998 7.39584 0.104 7.56384 0.276C7.73584 0.448 7.82184 0.654 7.82184 0.894C7.82184 1.146 7.73584 1.358 7.56384 1.53C7.39584 1.698 7.18784 1.782 6.93984 1.782ZM12.5297 1.782C12.2897 1.782 12.0837 1.698 11.9117 1.53C11.7437 1.358 11.6597 1.146 11.6597 0.894C11.6597 0.654 11.7437 0.448 11.9117 0.276C12.0837 0.104 12.2897 0.0179998 12.5297 0.0179998C12.7777 0.0179998 12.9857 0.104 13.1537 0.276C13.3257 0.448 13.4117 0.654 13.4117 0.894C13.4117 1.146 13.3257 1.358 13.1537 1.53C12.9857 1.698 12.7777 1.782 12.5297 1.782Z" fill="#666666"/>
</svg>
