<svg width="14" height="14" viewBox="0 0 14 14" fill="none" xmlns="http://www.w3.org/2000/svg">
<path fill-rule="evenodd" clip-rule="evenodd" d="M10.4178 0.64301C10.2799 0.422647 10.0767 0.250765 9.83653 0.15129C9.59636 0.051814 9.33115 0.029694 9.07781 0.0880095L7.27981 0.50101C7.09554 0.543361 6.90407 0.543361 6.71981 0.50101L4.92181 0.0880095C4.66847 0.029694 4.40326 0.051814 4.16308 0.15129C3.92291 0.250765 3.71972 0.422647 3.58181 0.64301L2.60181 2.20701C2.50181 2.36701 2.36681 2.50201 2.20681 2.60301L0.642809 3.58301C0.422827 3.7208 0.251197 3.92366 0.151743 4.16342C0.0522883 4.40319 0.0299431 4.66797 0.0878087 4.92101L0.500809 6.72101C0.543007 6.90495 0.543007 7.09607 0.500809 7.28001L0.0878087 9.07901C0.0297183 9.3322 0.051951 9.5972 0.151416 9.83717C0.250881 10.0771 0.422637 10.2802 0.642809 10.418L2.20681 11.398C2.36681 11.498 2.50181 11.633 2.60281 11.793L3.58281 13.357C3.86481 13.808 4.40281 14.031 4.92181 13.912L6.71981 13.499C6.90407 13.4567 7.09554 13.4567 7.27981 13.499L9.07881 13.912C9.332 13.9701 9.597 13.9479 9.83697 13.8484C10.0769 13.7489 10.28 13.5772 10.4178 13.357L11.3978 11.793C11.4978 11.633 11.6328 11.498 11.7928 11.398L13.3578 10.418C13.578 10.28 13.7497 10.0767 13.849 9.83655C13.9483 9.59638 13.9702 9.33124 13.9118 9.07801L13.4998 7.28001C13.4575 7.09574 13.4575 6.90427 13.4998 6.72001L13.9128 4.92101C13.971 4.66792 13.9489 4.403 13.8496 4.16304C13.7504 3.92308 13.5788 3.72 13.3588 3.58201L11.7938 2.60201C11.634 2.50183 11.499 2.36679 11.3988 2.20701L10.4178 0.64301ZM9.91481 4.77001C9.97666 4.65628 9.99198 4.52298 9.95756 4.39818C9.92313 4.27338 9.84164 4.16679 9.73023 4.10085C9.61882 4.03491 9.48617 4.01476 9.3602 4.04463C9.23423 4.0745 9.12475 4.15206 9.05481 4.26101L6.43981 8.68701L4.86081 7.17501C4.81397 7.12691 4.75791 7.08874 4.696 7.06277C4.63408 7.0368 4.56757 7.02357 4.50043 7.02386C4.43329 7.02416 4.3669 7.03797 4.30522 7.06448C4.24353 7.09098 4.18781 7.12964 4.14139 7.17815C4.09497 7.22665 4.05879 7.28401 4.03501 7.3468C4.01124 7.40959 4.00035 7.47652 4.003 7.54361C4.00566 7.6107 4.02179 7.67656 4.05045 7.73728C4.07911 7.798 4.1197 7.85232 4.16981 7.89701L6.20381 9.84601C6.25825 9.89806 6.32374 9.93714 6.3954 9.96034C6.46706 9.98353 6.54304 9.99023 6.61765 9.97994C6.69227 9.96965 6.76359 9.94264 6.8263 9.90092C6.88901 9.8592 6.94149 9.80385 6.97981 9.73901L9.91481 4.77001Z" fill="#FF6F00"/>
</svg>
